#!OML:ASF X:\für Bonn\!DataBase\2005_08_12_Daniel\c3d\Daniel.ASF
:FULLY-SPECIFIED
:DEGREES
53
root 0.993568 15.2552 -5.37589 -1623.15 134.277 186.96
lowerback 36.1036 -6.60682 6.67213
upperback 10.1766 -5.22826 0.0445295
thorax -7.07046 -2.15496 -1.49957
lowerneck 4.81555 5.17731 -1.81834
upperneck 14.501 7.4185 -3.28033
head 3.98097 3.49772 -0.625549
rclavicle -1.27222e-014 -2.8625e-014
rhumerus -391.205 -16.4084 284.964
rradius 19.3243
rwrist 21.3044
rhand -15.3983 736.411
rfingers 7.12502
rthumb 10.7806 706.708
lclavicle -1.27222e-014 -2.8625e-014
lhumerus -565.771 174.305 -463.037
lradius 55.0396
lwrist -3.28382
lhand -16.1179 -724.74
lfingers 7.12502
lthumb 10.0864 24.9987
rfemur -582.685 -166.632 562.445
rtibia 47.9058
rfoot -6.90657 -15.5026
rtoes 17.0454
lfemur 4.58129 9.96591 -13.7675
ltibia 69.5879
lfoot -4.79369 -3.84793
ltoes -5.14553
54
root 1.10809 15.2215 -5.29654 -1623.48 135.098 186.631
lowerback 37.0728 -6.67857 6.867
upperback 10.2559 -5.12865 0.142453
thorax -7.30296 -2.0985 -1.48401
lowerneck 5.0271 5.24902 -1.47856
upperneck 14.35 7.51862 -3.4801
head 3.91343 3.56001 -0.754559
rclavicle 0 1.90833e-014
rhumerus -390.597 -15.8749 284.978
rradius 19.3859
rwrist 22.2616
rhand -14.552 736.939
rfingers 7.12502
rthumb 11.5968 707.28
lclavicle 0 1.90833e-014
lhumerus -566.049 174.759 -462.411
lradius 55.3053
lwrist -3.56774
lhand -15.9974 -724.832
lfingers 7.12502
lthumb 10.2026 24.9001
rfemur -583.163 -166.657 562.751
rtibia 49.2506
rfoot -7.08534 -14.4694
rtoes 15.9379
lfemur 2.95 10.032 -13.4025
ltibia 72.258
lfoot -0.721245 -3.76747
ltoes -3.552
55
root 1.22153 15.1878 -5.22008 -1623.8 135.941 186.35
lowerback 38.0648 -6.75409 7.00719
upperback 10.3741 -5.04952 0.203794
thorax -7.4923 -2.04929 -1.47328
lowerneck 5.19209 5.33923 -1.13095
upperneck 14.1963 7.64063 -3.6425
head 3.85356 3.63355 -0.870878
rclavicle 9.54166e-015 1.03368e-014
rhumerus -389.908 -15.1591 284.862
rradius 19.5544
rwrist 23.0588
rhand -13.8766 737.454
rfingers 7.12502
rthumb 12.2481 707.832
lclavicle 9.54166e-015 1.03368e-014
lhumerus -566.268 175.293 -461.809
lradius 55.5402
lwrist -3.80533
lhand -16.0377 -724.995
lfingers 7.12502
lthumb 10.1637 24.74
rfemur -583.612 -166.636 563.025
rtibia 50.6041
rfoot -7.34491 -13.4035
rtoes 15.3553
lfemur 1.34994 10.0784 -13.0945
ltibia 74.7957
lfoot 2.75347 -3.91347
ltoes -2.68789
56
root 1.33328 15.1505 -5.14798 -1624.1 136.811 186.096
lowerback 39.0845 -6.82029 7.1085
upperback 10.4956 -4.97175 0.226945
thorax -7.67835 -2.00025 -1.48313
lowerneck 5.35609 5.43827 -0.684497
upperneck 14.0569 7.77946 -3.82032
head 3.80606 3.71903 -1.00857
rclavicle 1.98785e-014 -2.62396e-014
rhumerus -389.273 -14.2254 284.607
rradius 19.9359
rwrist 23.5166
rhand -13.383 737.942
rfingers 7.12502
rthumb 12.724 708.35
lclavicle 1.98785e-014 -2.62396e-014
lhumerus -566.415 175.904 -461.25
lradius 55.7195
lwrist -4.016
lhand -16.1447 -725.159
lfingers 7.12502
lthumb 10.0605 24.5809
rfemur -584.051 -166.573 563.303
rtibia 51.9477
rfoot -7.5889 -12.3155
rtoes 15.3274
lfemur -0.225965 10.1097 -12.8479
ltibia 77.1582
lfoot 5.52879 -4.3287
ltoes -2.13264
57
root 1.44584 15.1141 -5.07886 -1624.36 137.717 185.894
lowerback 40.0819 -6.87436 7.15086
upperback 10.6498 -4.90639 0.214164
thorax -7.81207 -1.95524 -1.50063
lowerneck 5.46488 5.54759 -0.18884
upperneck 13.913 7.93544 -4.00742
head 3.77203 3.81369 -1.15601
rclavicle -3.4191e-014 4.69132e-014
rhumerus -388.613 -13.2202 284.265
rradius 20.4473
rwrist 23.689
rhand -13.0343 738.346
rfingers 7.12502
rthumb 13.0602 708.775
lclavicle -3.4191e-014 4.69132e-014
lhumerus -566.463 176.484 -460.731
lradius 55.8877
lwrist -4.31137
lhand -16.2503 -725.289
lfingers 7.12502
lthumb 9.95871 24.4554
rfemur -584.461 -166.445 563.564
rtibia 53.2454
rfoot -7.80065 -11.1429
rtoes 15.4779
lfemur -1.77558 10.0857 -12.7293
ltibia 79.3399
lfoot 7.52148 -5.00208
ltoes -1.23232
58
root 1.55726 15.0829 -5.01323 -1624.61 138.658 185.72
lowerback 41.0515 -6.89892 7.14144
upperback 10.8628 -4.8279 0.192968
thorax -7.85924 -1.90114 -1.51218
lowerneck 5.55374 5.65476 0.306466
upperneck 13.7076 8.09101 -4.24086
head 3.72411 3.90701 -1.3191
rclavicle -1.19271e-014 -4.45278e-014
rhumerus -387.894 -12.1672 283.894
rradius 21.052
rwrist 23.6556
rhand -12.8475 738.625
rfingers 7.12502
rthumb 13.2402 709.066
lclavicle -1.19271e-014 -4.45278e-014
lhumerus -566.321 177.051 -460.229
lradius 55.9737
lwrist -4.72147
lhand -16.3436 -725.528
lfingers 7.12502
lthumb 9.86871 24.221
rfemur -584.788 -166.289 563.804
rtibia 54.4638
rfoot -8.04077 -9.90091
rtoes 15.9247
lfemur -3.26647 10.014 -12.6793
ltibia 81.3765
lfoot 8.61139 -5.95506
ltoes -0.776231
59
root 1.66816 15.0547 -4.9507 -1624.84 139.624 185.584
lowerback 41.9629 -6.90322 7.09333
upperback 11.1351 -4.74831 0.15779
thorax -7.81279 -1.84361 -1.52664
lowerneck 5.63862 5.76177 0.773156
upperneck 13.4742 8.24748 -4.4998
head 3.66912 3.9988 -1.48636
rclavicle -1.27222e-014 3.97569e-014
rhumerus -387.156 -10.7891 283.425
rradius 21.7997
rwrist 23.061
rhand -12.8114 738.726
rfingers 7.12502
rthumb 13.2749 709.169
lclavicle -1.27222e-014 3.97569e-014
lhumerus -566.047 177.633 -459.769
lradius 56.0576
lwrist -5.24055
lhand -16.3091 -725.746
lfingers 7.12502
lthumb 9.90193 24.0012
rfemur -585.027 -166.11 564.018
rtibia 55.5929
rfoot -8.267 -8.63966
rtoes 16.1577
lfemur -4.69626 9.894 -12.7104
ltibia 83.2619
lfoot 8.86506 -7.09172
ltoes -0.814295
